<svg xmlns="http://www.w3.org/2000/svg" xmlns:xlink="http://www.w3.org/1999/xlink" width="840" height="233.68"><rect width="840" height="233.68" rx="5" ry="5" class="a"/><svg y="0%" x="0%"><circle cx="20" cy="20" r="6" fill="#ff5f58"/><circle cx="40" cy="20" r="6" fill="#ffbd2e"/><circle cx="60" cy="20" r="6" fill="#18c132"/></svg><svg height="173.68" viewBox="0 0 80 17.368" width="800" x="15" xmlns="http://www.w3.org/2000/svg" xmlns:xlink="http://www.w3.org/1999/xlink" y="50"><style>@keyframes j{0%{transform:translateX(0)}.1%{transform:translateX(-80px)}8.7%{transform:translateX(-160px)}11.3%{transform:translateX(-240px)}12.4%{transform:translateX(-320px)}14.9%{transform:translateX(-400px)}17.6%{transform:translateX(-480px)}20.4%{transform:translateX(-560px)}22.4%{transform:translateX(-640px)}23.2%{transform:translateX(-800px)}to{transform:translateX(-880px)}}.a{fill:#282d35}.f,.g{fill:#b9c0cb;white-space:pre}.g{fill:#a8cc8c}</style><g font-family="Monaco,Consolas,Menlo,'Bitstream Vera Sans Mono','Powerline Symbols',monospace" font-size="1.67"><defs><symbol id="1"><text y="1.67" class="f">$</text></symbol><symbol id="2"><text y="1.67" class="f">$</text><text x="2.004" y="1.67" class="f">tagref</text></symbol><symbol id="3"><text y="1.67" class="g">37</text><text x="3.006" y="1.67" class="g">tags</text><text x="8.016" y="1.67" class="g">and</text><text x="12.024" y="1.67" class="g">59</text><text x="15.03" y="1.67" class="g">references</text><text x="26.052" y="1.67" class="g">validated</text><text x="36.072" y="1.67" class="g">in</text><text x="39.078" y="1.67" class="g">190</text><text x="43.086" y="1.67" class="g">files.</text></symbol><symbol id="a"><path fill="transparent" d="M0 0h80v8H0z"/></symbol><symbol id="b"><path fill="#6f7683" d="M0 0h1.102v2.171H0z"/></symbol></defs><path class="a" d="M0 0h80v17.368H0z"/><g style="animation-duration:4.705944s;animation-iteration-count:infinite;animation-name:j;animation-timing-function:steps(1,end)"><svg width="960"><svg><use xlink:href="#a"/><use xlink:href="#b" x="-.004"/></svg><svg x="80"><use xlink:href="#a"/><use xlink:href="#b" x="1.996"/><use xlink:href="#1"/></svg><svg x="160"><use xlink:href="#a"/><use xlink:href="#b" x="2.996"/><text y="1.67" class="f">$</text><text x="2.004" y="1.67" class="f">t</text></svg><svg x="240"><use xlink:href="#a"/><use xlink:href="#b" x="3.996"/><text y="1.67" class="f">$</text><text x="2.004" y="1.67" class="f">ta</text></svg><svg x="320"><use xlink:href="#a"/><use xlink:href="#b" x="4.996"/><text y="1.67" class="f">$</text><text x="2.004" y="1.67" class="f">tag</text></svg><svg x="400"><use xlink:href="#a"/><use xlink:href="#b" x="5.996"/><text y="1.67" class="f">$</text><text x="2.004" y="1.67" class="f">tagr</text></svg><svg x="480"><use xlink:href="#a"/><use xlink:href="#b" x="6.996"/><text y="1.67" class="f">$</text><text x="2.004" y="1.67" class="f">tagre</text></svg><svg x="560"><use xlink:href="#a"/><use xlink:href="#b" x="7.996"/><use xlink:href="#2"/></svg><svg x="640"><use xlink:href="#a"/><use xlink:href="#b" x="-.004" y="2.146"/><use xlink:href="#2"/></svg><svg x="720"><use xlink:href="#a"/><use xlink:href="#b" x="-.004" y="4.317"/><use xlink:href="#2"/><use xlink:href="#3" y="2.171"/></svg><svg x="800"><use xlink:href="#a"/><use xlink:href="#b" x="1.996" y="4.317"/><use xlink:href="#2"/><use xlink:href="#3" y="2.171"/><use xlink:href="#1" y="4.342"/></svg><svg x="880"><use xlink:href="#a"/><use xlink:href="#b" x="-.004" y="6.488"/><use xlink:href="#2"/><use xlink:href="#3" y="2.171"/><text y="6.012" class="f">$</text><text x="2.004" y="6.012" class="f">exit</text></svg></svg></g></g></svg></svg>