<svg xmlns="http://www.w3.org/2000/svg" xmlns:xlink="http://www.w3.org/1999/xlink" width="820" height="407.36"><rect width="820" height="407.36" rx="5" ry="5" class="a"/><svg y="0%" x="0%"><circle cx="20" cy="20" r="6" fill="#ff5f58"/><circle cx="40" cy="20" r="6" fill="#ffbd2e"/><circle cx="60" cy="20" r="6" fill="#18c132"/></svg><svg height="347.36" viewBox="0 0 78 34.736" width="780" x="15" xmlns="http://www.w3.org/2000/svg" xmlns:xlink="http://www.w3.org/1999/xlink" y="50"><style>@keyframes j{0%{transform:translateX(0)}.1%{transform:translateX(-78px)}4.8%{transform:translateX(-156px)}6.8%{transform:translateX(-234px)}7.9%{transform:translateX(-312px)}10.3%{transform:translateX(-390px)}12.9%{transform:translateX(-468px)}15.2%{transform:translateX(-546px)}17.5%{transform:translateX(-624px)}17.9%{transform:translateX(-780px)}to{transform:translateX(-858px)}}.a{fill:#282d35}.f,.g{fill:#b9c0cb;white-space:pre}.g{fill:#a8cc8c}</style><g font-family="Monaco,Consolas,Menlo,'Bitstream Vera Sans Mono','Powerline Symbols',monospace" font-size="1.67"><defs><symbol id="1"><text y="1.67" class="f">$</text></symbol><symbol id="2"><text y="1.67" class="f">$</text><text x="2.004" y="1.67" class="f">tagref</text></symbol><symbol id="3"><text y="1.67" class="g">236</text><text x="4.008" y="1.67" class="g">tags,</text><text x="10.02" y="1.67" class="g">304</text><text x="14.028" y="1.67" class="g">tag</text><text x="18.036" y="1.67" class="g">references,</text><text x="30.06" y="1.67" class="g">37</text><text x="33.066" y="1.67" class="g">file</text><text x="38.076" y="1.67" class="g">references,</text><text x="50.1" y="1.67" class="g">and</text><text x="54.108" y="1.67" class="g">14</text><text x="57.114" y="1.67" class="g">directory</text><text x="67.134" y="1.67" class="g">references</text></symbol><symbol id="4"><text y="1.67" class="g">validated</text><text x="10.02" y="1.67" class="g">in</text><text x="13.026" y="1.67" class="g">541</text><text x="17.034" y="1.67" class="g">files.</text></symbol><symbol id="a"><path fill="transparent" d="M0 0h78v16H0z"/></symbol><symbol id="b"><path fill="#6f7683" d="M0 0h1.102v2.171H0z"/></symbol></defs><path class="a" d="M0 0h78v34.736H0z"/><g style="animation-duration:4.77051s;animation-iteration-count:infinite;animation-name:j;animation-timing-function:steps(1,end)"><svg width="936"><svg><use xlink:href="#a"/><use xlink:href="#b" x="-.004"/></svg><svg x="78"><use xlink:href="#a"/><use xlink:href="#b" x="1.996"/><use xlink:href="#1"/></svg><svg x="156"><use xlink:href="#a"/><use xlink:href="#b" x="2.996"/><text y="1.67" class="f">$</text><text x="2.004" y="1.67" class="f">t</text></svg><svg x="234"><use xlink:href="#a"/><use xlink:href="#b" x="3.996"/><text y="1.67" class="f">$</text><text x="2.004" y="1.67" class="f">ta</text></svg><svg x="312"><use xlink:href="#a"/><use xlink:href="#b" x="4.996"/><text y="1.67" class="f">$</text><text x="2.004" y="1.67" class="f">tag</text></svg><svg x="390"><use xlink:href="#a"/><use xlink:href="#b" x="5.996"/><text y="1.67" class="f">$</text><text x="2.004" y="1.67" class="f">tagr</text></svg><svg x="468"><use xlink:href="#a"/><use xlink:href="#b" x="6.996"/><text y="1.67" class="f">$</text><text x="2.004" y="1.67" class="f">tagre</text></svg><svg x="546"><use xlink:href="#a"/><use xlink:href="#b" x="7.996"/><use xlink:href="#2"/></svg><svg x="624"><use xlink:href="#a"/><use xlink:href="#b" x="-.004" y="2.146"/><use xlink:href="#2"/></svg><svg x="702"><use xlink:href="#a"/><use xlink:href="#b" x="-.004" y="6.488"/><use xlink:href="#2"/><use xlink:href="#3" y="2.171"/><use xlink:href="#4" y="4.342"/></svg><svg x="780"><use xlink:href="#a"/><use xlink:href="#b" x="1.996" y="6.488"/><use xlink:href="#2"/><use xlink:href="#3" y="2.171"/><use xlink:href="#4" y="4.342"/><use xlink:href="#1" y="6.513"/></svg><svg x="858"><use xlink:href="#a"/><use xlink:href="#b" x="-.004" y="8.659"/><use xlink:href="#2"/><use xlink:href="#3" y="2.171"/><use xlink:href="#4" y="4.342"/><text y="8.183" class="f">$</text><text x="2.004" y="8.183" class="f">exit</text></svg></svg></g></g></svg></svg>